<svg width="23" height="23" viewBox="0 0 23 23" fill="none" xmlns="http://www.w3.org/2000/svg">
<path fill-rule="evenodd" clip-rule="evenodd" d="M0.194824 11.4026C0.194824 5.11523 5.31006 0 11.5974 0C17.8853 0 23 5.11523 23 11.4026C23 17.6895 17.8843 22.8052 11.5974 22.8052C5.31006 22.8052 0.194824 17.6895 0.194824 11.4026ZM12.5854 10.435C12.9271 9.90741 13.5377 9.15587 14.905 9.15587C16.5992 9.15587 17.87 10.2632 17.8713 12.6414V17.0844H17.8706H15.2956V12.9393C15.2956 11.8969 14.923 11.1866 13.9913 11.1866C13.2797 11.1866 12.8563 11.6659 12.6697 12.1292C12.6002 12.2946 12.5854 12.5269 12.5854 12.7579V17.0863H10.0104C10.0104 17.0863 10.0438 10.0644 10.0104 9.33861H12.5854V10.435ZM12.5674 10.4621H12.5835V10.4357C12.5815 10.4413 12.5777 10.4466 12.574 10.452C12.5717 10.4553 12.5693 10.4586 12.5674 10.4621ZM8.58227 9.33855H6.00722V17.0862H8.58227V9.33855ZM5.85646 6.94196C5.85646 6.18142 6.43298 5.60361 7.31321 5.60361C8.19472 5.60361 8.73585 6.18206 8.75323 6.94196C8.75323 7.68514 8.19408 8.28032 7.29583 8.28032H7.2791C6.41561 8.28032 5.85646 7.68514 5.85646 6.94196Z" fill="#636363"/>
</svg>
