<svg width="24" height="24" viewBox="0 0 24 24" fill="none" xmlns="http://www.w3.org/2000/svg">
<path fill-rule="evenodd" clip-rule="evenodd" d="M11.7639 0.028717C18.2608 0.028717 23.5279 5.37076 23.5279 11.9602C23.5279 18.5497 18.2608 23.8917 11.7639 23.8917C5.26701 23.8917 0 18.5497 0 11.9602C0 5.37076 5.26701 0.028717 11.7639 0.028717ZM16.9607 9.11298C16.9662 9.23631 16.9684 9.36077 16.9684 9.48638C16.9684 13.3052 14.2714 17.7067 9.33981 17.7056C7.82472 17.7056 6.41559 17.219 5.2282 16.384C5.43788 16.4112 5.65193 16.4258 5.86825 16.4258C7.12402 16.4292 8.28047 15.963 9.19859 15.1823C8.0256 15.1541 7.03465 14.302 6.69366 13.1354C6.85698 13.1717 7.02473 13.1909 7.19796 13.1921C7.44184 13.1932 7.6791 13.1592 7.90422 13.0936C6.67716 12.8153 5.75241 11.6227 5.75241 10.1992V10.1619C6.11435 10.3859 6.52705 10.5229 6.96733 10.5432C6.24787 10.0091 5.77447 9.10395 5.77447 8.08557C5.77447 7.54696 5.90688 7.04458 6.13751 6.61461C7.45954 8.40914 9.43588 9.59949 11.666 9.74658C11.6197 9.53275 11.5965 9.31095 11.5965 9.08239C11.5965 7.47456 12.7971 6.19142 14.278 6.21632C15.0494 6.2299 15.7468 6.59309 16.2357 7.16339C16.8459 7.04344 17.4197 6.81261 17.9384 6.49014C17.7375 7.16111 17.3127 7.72007 16.7587 8.06971C17.3017 8.00752 17.8181 7.8593 18.2992 7.6375C17.9395 8.21118 17.4848 8.71241 16.9607 9.11298Z" fill="#636363"/>
</svg>
